<svg width="1920" height="1080" viewBox="0 0 1920 1080" xmlns="http://www.w3.org/2000/svg">
  <defs>
    <linearGradient id="bg" x1="0%" y1="0%" x2="100%" y2="100%">
      <stop offset="0%" stop-color="#1e1e2e"/>
      <stop offset="100%" stop-color="#2d2b55"/>
    </linearGradient>
    <style>
      @import url('https://fonts.googleapis.com/css2?family=Roboto:wght@300;400;700&amp;display=swap');
      .header { font-family: 'Roboto', sans-serif; font-weight: 700; font-size: 72px; fill: #61afef; }
      .headline { font-family: 'Roboto', sans-serif; font-weight: 400; font-size: 48px; fill: #ffffff; }
      .bullet { font-family: 'Roboto', sans-serif; font-weight: 300; font-size: 36px; fill: #dcdfe4; }
      .bullet-bold { font-weight: 700; fill: #e5c07b; }
    </style>
  </defs>
  <rect width="100%" height="100%" fill="url(#bg)"/>
  <rect x="100" y="150" width="100" height="10" fill="#61afef"/>

  <text x="100" y="120" class="header">Agentic Patterns &amp; Prototyping</text>
  <text x="100" y="250" class="headline">Accelerating Experimentation</text>

  <g transform="translate(100, 380)">
    <circle cx="15" cy="-12" r="8" fill="#e5c07b"/>
    <text x="50" y="0" class="bullet"><tspan class="bullet-bold">The Agentic Team:</tspan> Moving from Chat to Collaboration.</text>
    
    <circle cx="15" cy="88" r="8" fill="#e5c07b"/>
    <text x="50" y="100" class="bullet"><tspan class="bullet-bold">Supervisor:</tspan> Manages orchestration, quality, and context.</text>

    <circle cx="15" cy="188" r="8" fill="#e5c07b"/>
    <text x="50" y="200" class="bullet"><tspan class="bullet-bold">Researcher &amp; Engineer:</tspan> Deep investigation and implementation.</text>

    <circle cx="15" cy="288" r="8" fill="#e5c07b"/>
    <text x="50" y="300" class="bullet"><tspan class="bullet-bold">Tester &amp; Auditor:</tspan> Independent verification and standards check.</text>
  </g>

  <!-- Illustration: Supervisor Network -->
  <g transform="translate(1450, 600)">
    <!-- Links -->
    <line x1="0" y1="0" x2="-100" y2="-100" stroke="#61afef" stroke-width="2"/>
    <line x1="0" y1="0" x2="100" y2="-100" stroke="#61afef" stroke-width="2"/>
    <line x1="0" y1="0" x2="-100" y2="100" stroke="#61afef" stroke-width="2"/>
    <line x1="0" y1="0" x2="100" y2="100" stroke="#61afef" stroke-width="2"/>
    
    <!-- Central Node (Supervisor) -->
    <circle cx="0" cy="0" r="40" fill="#e5c07b"/>
    <path d="M-15 -5 L0 10 L15 -20" stroke="#1e1e2e" stroke-width="6" fill="none"/>
    
    <!-- Worker Nodes -->
    <circle cx="-100" cy="-100" r="20" fill="#61afef"/>
    <circle cx="100" cy="-100" r="20" fill="#61afef"/>
    <circle cx="-100" cy="100" r="20" fill="#61afef"/>
    <circle cx="100" cy="100" r="20" fill="#61afef"/>
    
    <!-- Magnifying Glass Overlay -->
    <g transform="translate(40, 40)">
      <circle cx="0" cy="0" r="30" fill="none" stroke="#98c379" stroke-width="6"/>
      <line x1="20" y1="20" x2="40" y2="40" stroke="#98c379" stroke-width="6"/>
    </g>
  </g>
</svg>