<svg width="1920" height="1080" viewBox="0 0 1920 1080" xmlns="http://www.w3.org/2000/svg">
  <defs>
    <linearGradient id="bg" x1="0%" y1="0%" x2="100%" y2="100%">
      <stop offset="0%" stop-color="#1e1e2e"/>
      <stop offset="100%" stop-color="#2d2b55"/>
    </linearGradient>
    <style>
      @import url('https://fonts.googleapis.com/css2?family=Roboto:wght@300;400;700&amp;display=swap');
      .header { font-family: 'Roboto', sans-serif; font-weight: 700; font-size: 72px; fill: #61afef; }
      .headline { font-family: 'Roboto', sans-serif; font-weight: 400; font-size: 48px; fill: #ffffff; }
      .bullet { font-family: 'Roboto', sans-serif; font-weight: 300; font-size: 36px; fill: #dcdfe4; }
      .bullet-bold { font-weight: 700; fill: #e5c07b; }
    </style>
  </defs>
  <rect width="100%" height="100%" fill="url(#bg)"/>
  <rect x="100" y="150" width="100" height="10" fill="#61afef"/>

  <text x="100" y="120" class="header">Working with Legacy Code</text>
  <text x="100" y="250" class="headline">Applying Modern Agents to Existing Systems</text>

  <g transform="translate(100, 380)">
    <circle cx="15" cy="-12" r="8" fill="#e5c07b"/>
    <text x="50" y="0" class="bullet"><tspan class="bullet-bold">Identify Seams:</tspan> Find safe places to decouple dependencies.</text>
    
    <circle cx="15" cy="88" r="8" fill="#e5c07b"/>
    <text x="50" y="100" class="bullet"><tspan class="bullet-bold">Characterization Tests:</tspan> Agents write tests to lock in behavior.</text>
    
    <circle cx="15" cy="188" r="8" fill="#e5c07b"/>
    <text x="50" y="200" class="bullet"><tspan class="bullet-bold">Strangler Fig Pattern:</tspan> Gradually replace system edges.</text>
    
    <circle cx="15" cy="288" r="8" fill="#e5c07b"/>
    <text x="50" y="300" class="bullet"><tspan class="bullet-bold">Safety Net:</tspan> Heightened importance of tests before refactoring.</text>
    
    <circle cx="15" cy="388" r="8" fill="#e5c07b"/>
    <text x="50" y="400" class="bullet"><tspan class="bullet-bold">Enable Change:</tspan> Break deps -> Test -> Refactor (Feathers' Way).</text>
  </g>

  <!-- Illustration: Unlocking Legacy Code -->
  <g transform="translate(1450, 600)">
    <!-- Old Lock / Box -->
    <rect x="-80" y="-60" width="160" height="120" rx="10" fill="#2d2b55" stroke="#a5b3ce" stroke-width="4" stroke-dasharray="10,5"/>
    <path d="M-40 -60 V-90 A40 40 0 0 1 40 -90 V-60" fill="none" stroke="#a5b3ce" stroke-width="10"/>
    
    <!-- New Key / Agent -->
    <path d="M20 40 L80 100 L110 70 L50 10" fill="#e5c07b"/>
    <circle cx="35" cy="25" r="15" fill="#1e1e2e"/>
    
    <!-- Green Check for Tests -->
    <path d="M-120 80 L-100 100 L-60 20" fill="none" stroke="#98c379" stroke-width="10" stroke-linecap="round" stroke-linejoin="round"/>
  </g>
</svg>