<svg width="1920" height="1080" viewBox="0 0 1920 1080" xmlns="http://www.w3.org/2000/svg">
  <defs>
    <linearGradient id="bg" x1="0%" y1="0%" x2="100%" y2="100%">
      <stop offset="0%" stop-color="#1e1e2e"/>
      <stop offset="100%" stop-color="#2d2b55"/>
    </linearGradient>
    <style>
      @import url('https://fonts.googleapis.com/css2?family=Roboto:wght@300;400;700&amp;display=swap');
      .header { font-family: 'Roboto', sans-serif; font-weight: 700; font-size: 72px; fill: #61afef; }
      .headline { font-family: 'Roboto', sans-serif; font-weight: 400; font-size: 48px; fill: #ffffff; }
      .bullet { font-family: 'Roboto', sans-serif; font-weight: 300; font-size: 36px; fill: #dcdfe4; }
      .bullet-bold { font-weight: 700; fill: #e5c07b; }
    </style>
  </defs>
  <rect width="100%" height="100%" fill="url(#bg)"/>
  <rect x="100" y="150" width="100" height="10" fill="#61afef"/>

  <text x="100" y="120" class="header">The GEMINI.md Strategy</text>
  <text x="100" y="250" class="headline">Codifying Project Intelligence</text>

  <g transform="translate(100, 380)">
    <circle cx="15" cy="-12" r="8" fill="#e5c07b"/>
    <text x="50" y="0" class="bullet"><tspan class="bullet-bold">The Problem:</tspan> General training vs. project-specific style.</text>
    
    <circle cx="15" cy="88" r="8" fill="#e5c07b"/>
    <text x="50" y="100" class="bullet"><tspan class="bullet-bold">The Solution:</tspan> Use GEMINI.md to enforce project rules.</text>

    <circle cx="15" cy="188" r="8" fill="#e5c07b"/>
    <text x="50" y="200" class="bullet"><tspan class="bullet-bold">Best Practice:</tspan> Treat prompts like code. Version control them.</text>
    <text x="50" y="250" class="bullet">Refine them based on where the model fails.</text>

    <circle cx="15" cy="308" r="8" fill="#e5c07b"/>
    <text x="50" y="320" class="bullet"><tspan class="bullet-bold">Focus on Ambiguity:</tspan> Steer choices (e.g. frameworks),</text>
    <text x="50" y="370" class="bullet">don't restate general standards.</text>
  </g>

  <!-- Illustration: Document Shield -->
  <g transform="translate(1450, 600)">
    <!-- Document -->
    <path d="M-100 -140 L40 -140 L100 -80 L100 140 L-100 140 Z" fill="#282c34" stroke="#abb2bf" stroke-width="4"/>
    <path d="M40 -140 L40 -80 L100 -80" fill="none" stroke="#abb2bf" stroke-width="4"/>
    
    <!-- Code Lines -->
    <line x1="-70" y1="-50" x2="0" y2="-50" stroke="#61afef" stroke-width="6"/>
    <line x1="-70" y1="-20" x2="70" y2="-20" stroke="#98c379" stroke-width="6"/>
    <line x1="-70" y1="10" x2="40" y2="10" stroke="#e5c07b" stroke-width="6"/>
    
    <!-- Shield Overlay -->
    <path d="M0 -20 L90 10 Q90 90 0 160 Q-90 90 -90 10 L0 -20 Z" fill="rgba(97, 175, 239, 0.2)" stroke="#61afef" stroke-width="6" transform="translate(0, 50) scale(1.2)"/>
    <path d="M-30 60 L0 90 L30 30" stroke="#61afef" stroke-width="8" fill="none" transform="translate(0, 50)"/>
  </g>
</svg>